PathFileType	4	(X/Y/Z)	14_2_101_p1_0-553_filt_butterworth.trc
DataRate	CameraRate	NumFrames	NumMarkers	Units	OrigDataRate	OrigDataStartFrame	OrigNumFrames
59.0	59.0	5	27	m	59.0	276	553
Frame#	Time	RHip			RKnee			RAnkle			RBigToe			RSmallToe			RHeel			LHip			LKnee			LAnkle			LBigToe			LSmallToe			LHeel			Neck			Head			Nose			RShoulder			RElbow			RWrist			RThumb			RIndex			RPinky			LShoulder			LElbow			LWrist			LThumb			LIndex			LPinky			
		X1	Y1	Z1	X2	Y2	Z2	X3	Y3	Z3	X4	Y4	Z4	X5	Y5	Z5	X6	Y6	Z6	X7	Y7	Z7	X8	Y8	Z8	X9	Y9	Z9	X10	Y10	Z10	X11	Y11	Z11	X12	Y12	Z12	X13	Y13	Z13	X14	Y14	Z14	X15	Y15	Z15	X16	Y16	Z16	X17	Y17	Z17	X18	Y18	Z18	X19	Y19	Z19	X20	Y20	Z20	X21	Y21	Z21	X22	Y22	Z22	X23	Y23	Z23	X24	Y24	Z24	X25	Y25	Z25	X26	Y26	Z26	X27	Y27	Z27	
276	4.677966101694915	0.3208231986746229	0.6824949609260873	0.8637652589412419	0.30317761925287845	0.2570329843285032	0.8698426827059712	0.2845151737853432	-0.19580060860964035	0.932971668116934	0.2683585852488345	-0.1673666505150219	0.6998525201706277	0.3224561396319293	-0.17478136789649587	0.7181728630488288	0.2753621270964843	-0.2528537850101813	0.9674288674823881	0.08367760093810715	0.6815705827437389	0.8929645305434072	0.10069463438760504	0.26444306593072076	0.8883874239012374	0.10312519453831093	-0.16785336704791376	0.8680180700293666	0.1189202299915785	-0.1477809101548591	0.6940748531119715	0.06712310178963642	-0.16062218735400596	0.7245594292087195	0.12579998190740413	-0.23785186791120902	0.927749091350709	0.21763969914076803	1.330006215931878	0.8628363217053898	0.21934812626236974	1.5829259768655601	0.8524327494809993	0.21792086619039513	1.4569132903578152	0.7688602777165392	0.41022572279576064	1.2308651331559992	0.8452708921632052	0.47501024448941553	0.9691328186303042	0.8130425519327991	0.4891466573361824	0.7507838181071665	0.6801223291360676	0.42289546414043355	0.630536815010163	0.6496998635009867	0.4285144382274491	0.6056778159565107	0.6404883473252749	0.4588802540908907	0.5824203503962716	0.7502706377170507	0.045425402449566735	1.239800930577418	0.8832984213045583	-0.040533630495301065	0.9629938366734465	0.8956841700070971	-0.08900341218655192	0.7327850210391607	0.7879130732421343	-0.053030480647372764	0.6249443665252981	0.7778936865588646	-0.08922322140914715	0.6112244602389303	0.7682345922956848	-0.09800659611969764	0.610104811932583	0.7812311343998433	
277	4.694915254237288	0.3207844832335798	0.6819019212636246	0.8636379522992944	0.30324190438684623	0.2567591221147789	0.8699004194876577	0.2847751834415121	-0.1961690704201965	0.9341165135257251	0.2683769389212537	-0.16737674067956995	0.699888781134952	0.32246949048696466	-0.1748096240652811	0.7182883845228613	0.2755984134165313	-0.25416864859758803	0.9683325508107714	0.08371056942183712	0.6805778623495442	0.8928356989264901	0.100808059115699	0.26453579333736116	0.8884068022463143	0.10269632714195051	-0.16785507663718768	0.8678264249887003	0.11894991301393967	-0.1483672919637318	0.6942826179917687	0.06718343777697273	-0.15913883785534338	0.7244587638516649	0.12535198873617853	-0.2376127150005632	0.9274200466008197	0.2176422482760098	1.3300751673038114	0.8628528345608049	0.2193531973138345	1.5828968342168293	0.8524839050247309	0.21746541183765244	1.4566625367249584	0.7706349078343782	0.410325620494142	1.2301642280718512	0.8453325600702493	0.47514787866122266	0.9678619280420511	0.812974679325473	0.4891318360992296	0.7497255087253312	0.6796608572422714	0.42324454155819996	0.6294427371208927	0.6526969125339911	0.4282086254391284	0.6047724164860571	0.6425768013695473	0.45974918713226354	0.5817645635565749	0.7504442345891906	0.046070544775776406	1.2393811687750556	0.8857641919229295	-0.04057412632413179	0.9632134368695832	0.8955598805693907	-0.08808915601646156	0.7335301064786353	0.7882764940878	-0.05279868628566618	0.625130863807025	0.7778526410809158	-0.0888760872847874	0.6121734624880787	0.7684428509118966	-0.09770011552059422	0.6105676418593433	0.7814115718611916	
278	4.711864406779661	0.32076656051994423	0.6813320826609013	0.8635359491196736	0.30330210092466253	0.2565084185929322	0.8699540843170604	0.28491243831861923	-0.1962697885983542	0.9349163660938767	0.2683977632058005	-0.16739802268122958	0.6999331502926313	0.3225144905925204	-0.17484710719678265	0.7184553836666866	0.27572890750153856	-0.25510100203322006	0.9688438437949907	0.08375358340866383	0.6795227820419454	0.8927219349751299	0.10085311714408335	0.26457987571797126	0.8883722644251261	0.10229499873572392	-0.16781111735143603	0.8676513103208228	0.11896832016915967	-0.14848934338980369	0.694441263598906	0.06721295343501647	-0.15846685408617978	0.724490535129682	0.12491259296261008	-0.2373765653092026	0.9270931459128974	0.2176633729120575	1.3300026746329727	0.8628757296308635	0.21939903635532287	1.5828624603887542	0.8526565572917018	0.2168848085080395	1.4563936321994255	0.7729342982679197	0.4103962635009387	1.2295523934197938	0.8454205063022995	0.4752836840356066	0.9660373100510562	0.8127669092834646	0.4891202761716765	0.7485203976658333	0.6789914070355846	0.42298429802521115	0.6278097175870535	0.6558872331716679	0.42779457189294	0.6033143540359907	0.645200576520917	0.46044367853095763	0.5809534445709458	0.7506118153469459	0.04657978796876422	1.2391092301359916	0.8877192894520619	-0.04065783484778546	0.9633089851627147	0.8952336890911343	-0.0871734392620116	0.7338435475141483	0.7886235585049444	-0.052653160642285396	0.6252472452609826	0.7779313779569221	-0.08839979282291693	0.6128854140717889	0.7688893173690432	-0.09683819517263938	0.6112141587947169	0.781545548087021	
279	4.728813559322034	0.32076693024825614	0.6807558404422753	0.863458358808545	0.3033541149154609	0.25630115593263836	0.8699958006956088	0.2849404176753079	-0.19622369276391421	0.9353888209412522	0.2684155453877485	-0.16744113885138803	0.6999890498517323	0.322572131074742	-0.17488846201949565	0.718627442096246	0.27576159361679625	-0.25569733767653824	0.9689986438259769	0.08380366647099904	0.6784936663663421	0.892633741150199	0.1008097595712108	0.26456677895897884	0.8883003291551765	0.1019288516648421	-0.16771775518285603	0.8675072568588154	0.1189729831726688	-0.14838481283384808	0.6944984519237689	0.06721527556658881	-0.1589570897176732	0.7245424226151395	0.12449162313407681	-0.2371526449093899	0.9267776933764373	0.21771218580989637	1.3297158571082721	0.8629216786965084	0.21949542479004935	1.5828211339270954	0.8529735467207655	0.21626367226579918	1.456144746709763	0.7754265793026203	0.410441113940458	1.2289694983043522	0.8455223177671727	0.4754839887334747	0.9635412088440308	0.8124807206431979	0.48911216255747453	0.7471973638282802	0.6783859388764119	0.4221465673393935	0.6256704842860549	0.6587903073080332	0.42731852905560236	0.6012967925473083	0.6480042233899166	0.46092361335660914	0.5799615980838428	0.7507287415689622	0.04687673051432882	1.2390422776696095	0.8888763310921932	-0.040735749336158256	0.9629938417970919	0.8948883022937846	-0.08638019793798232	0.7335486877532044	0.7888708269999121	-0.05256210560209596	0.6252588303599397	0.7782013972601752	-0.08773682311857718	0.613008422381034	0.7696421621152139	-0.09538071791672176	0.6119945466316927	0.7816054106950975	
280	4.745762711864407	0.3207811353377876	0.680173393084736	0.8634102817795877	0.3034016543289711	0.25612071953296567	0.8700274224359935	0.28488089761923235	-0.1961197567235267	0.9355403775377364	0.2684143049019548	-0.16748028898629563	0.7000093477868962	0.32262385817826	-0.17493468660047598	0.7187754595019975	0.27570763325243414	-0.256056006722217	0.9688630934501631	0.08385844382718777	0.6775293715273074	0.8925758293150344	0.10068558639206378	0.264512790380467	0.8882105995954848	0.10160921799248854	-0.16763784899444498	0.86740686962249	0.11895902160294095	-0.14826629977384098	0.6944459892872384	0.0672237729330288	-0.16035786983655437	0.7245357403495458	0.12408817156358147	-0.23694482958837265	0.9264746822794445	0.21778525423405123	1.3292266517463904	0.8630031236643563	0.21957511747794056	1.5827789866127573	0.8532343332614256	0.21568632028545343	1.4559485123548312	0.7777671227961045	0.4104892064566525	1.228310598913348	0.8455982970836068	0.475806267316535	0.9604167817203002	0.8122451272900992	0.48912498453498676	0.7457002361382626	0.6783468208615961	0.4209457785336067	0.6231093676514262	0.6611796952904208	0.42685245896611856	0.5988478201375718	0.6506324961627291	0.4612101901079254	0.578845673817251	0.7507834347719453	0.04694958674088083	1.2390519387256804	0.8892031398162752	-0.040699596129176445	0.9619960407320081	0.8949505108933081	-0.0858298650143989	0.7325902012514633	0.7889503491724578	-0.052405445729023434	0.6252352596580503	0.7785668481984167	-0.0867257931024146	0.6122570238299737	0.7704787148930446	-0.09348307306086807	0.6127280978213728	0.7816085618452856	
